<?xml version="1.0" encoding="UTF-8"?>
<!DOCTYPE svg PUBLIC "-//W3C//DTD SVG 1.1//EN" "http://www.w3.org/Graphics/SVG/1.1/DTD/svg11.dtd">
<svg xmlns="http://www.w3.org/2000/svg" version="1.1" width="512px" height="512px" style="shape-rendering:geometricPrecision; text-rendering:geometricPrecision; image-rendering:optimizeQuality; fill-rule:evenodd; clip-rule:evenodd" xmlns:xlink="http://www.w3.org/1999/xlink">
<g><path style="opacity:0.958" fill="#fc58b1" d="M 218.5,-0.5 C 243.167,-0.5 267.833,-0.5 292.5,-0.5C 308.759,3.14901 325.092,7.31568 341.5,12C 354.427,17.0867 367.094,22.7534 379.5,29C 381.609,30.1411 383.442,31.6411 385,33.5C 387.455,64.738 386.955,95.9047 383.5,127C 383.833,129.5 384.167,132 384.5,134.5C 405.332,124.281 425.999,113.781 446.5,103C 450.278,100.888 453.778,98.388 457,95.5C 470.011,111.514 481.011,128.847 490,147.5C 499.827,170.503 506.994,194.17 511.5,218.5C 511.5,243.167 511.5,267.833 511.5,292.5C 506.994,316.83 499.827,340.497 490,363.5C 487.293,368.416 484.459,373.249 481.5,378C 455.833,378.667 430.167,378.667 404.5,378C 401.123,377.548 397.789,376.882 394.5,376C 373.584,362.375 351.917,350.041 329.5,339C 327.415,337.959 325.748,336.459 324.5,334.5C 356.253,304.514 366.753,268.181 356,225.5C 339.013,178.339 305.513,153.672 255.5,151.5C 248.136,151.565 240.802,152.065 233.5,153C 224.514,155.163 215.847,157.996 207.5,161.5C 207.482,149.144 207.315,136.81 207,124.5C 212.88,121.82 219.047,119.987 225.5,119C 237.224,117.569 248.89,115.902 260.5,114C 267.489,108.545 268.156,102.379 262.5,95.5C 261.5,95 260.5,94.5 259.5,94C 247.096,93.2369 234.763,93.9036 222.5,96C 209.974,99.3974 197.641,103.397 185.5,108C 165.492,108.833 145.492,108.666 125.5,107.5C 126.128,105.742 127.128,104.242 128.5,103C 164.92,73.9798 206.587,58.6464 253.5,57C 265.701,55.4176 269.034,49.0842 263.5,38C 261.998,37.4169 260.665,36.5836 259.5,35.5C 206.492,34.6691 159.159,50.5025 117.5,83C 110.296,89.5414 103.129,96.0414 96,102.5C 92.4563,99.1237 89.123,95.4571 86,91.5C 82.6692,84.8341 78.8359,78.5008 74.5,72.5C 101.631,45.2648 133.297,25.0981 169.5,12C 185.908,7.31568 202.241,3.14901 218.5,-0.5 Z"/></g>
<g><path style="opacity:0.925" fill="#fc58b1" d="M -0.5,292.5 C -0.5,267.833 -0.5,243.167 -0.5,218.5C 6.87885,175.401 23.3789,136.068 49,100.5C 50.6837,98.6487 52.5171,96.982 54.5,95.5C 61.3328,105.817 68.6661,115.817 76.5,125.5C 53.0865,159.236 39.2532,196.569 35,237.5C 34.3333,244.833 34.3333,252.167 35,259.5C 41.6888,268.313 48.6888,268.646 56,260.5C 57.0096,224.793 65.6763,191.126 82,159.5C 86.7764,151.725 91.943,144.225 97.5,137C 112.844,136.167 128.178,136.334 143.5,137.5C 109.035,170.778 92.5347,211.445 94,259.5C 97.4841,265.885 102.651,267.718 109.5,265C 111.552,264.07 113.052,262.57 114,260.5C 115.345,209.136 136.678,168.469 178,138.5C 179.153,145.84 179.653,153.34 179.5,161C 179.333,168.167 179.167,175.333 179,182.5C 174.363,189.146 169.696,195.812 165,202.5C 150.144,230.98 147.477,260.647 157,291.5C 160.954,302.078 166.454,311.745 173.5,320.5C 164.445,323.479 155.445,326.646 146.5,330C 137.165,336.336 127.499,342.169 117.5,347.5C 112.258,349.622 106.925,351.455 101.5,353C 78.1184,353.802 54.7851,353.136 31.5,351C 26.8333,350 22.1667,349 17.5,348C 16.0692,347.535 14.9025,346.701 14,345.5C 11.9504,341.357 10.2838,337.024 9,332.5C 5.99087,318.917 2.8242,305.583 -0.5,292.5 Z"/></g>
<g><path style="opacity:0.901" fill="#fc58b1" d="M 252.5,216.5 C 277.426,217.76 291.426,230.76 294.5,255.5C 291.833,278.833 278.833,291.833 255.5,294.5C 232.167,291.833 219.167,278.833 216.5,255.5C 218.895,233.444 230.895,220.444 252.5,216.5 Z"/></g>
<g><path style="opacity:0.966" fill="#fc58b1" d="M 292.5,511.5 C 267.833,511.5 243.167,511.5 218.5,511.5C 143,498.66 83.4997,460.66 40,397.5C 36.0233,391.878 32.8567,385.878 30.5,379.5C 40.1507,380.159 49.8173,380.659 59.5,381C 66.8957,383.585 74.5623,385.252 82.5,386C 95.8775,393.119 110.211,395.452 125.5,393C 133.434,391.912 140.767,389.245 147.5,385C 154.833,382.333 162.167,379.667 169.5,377C 178.417,371.478 187.417,366.144 196.5,361C 206.207,361.817 215.207,359.984 223.5,355.5C 241.556,359.919 259.723,360.586 278,357.5C 282.675,361.009 286.841,365.009 290.5,369.5C 294.968,372.137 299.302,374.97 303.5,378C 318.281,386.707 333.281,395.04 348.5,403C 360.086,410.245 371.419,417.912 382.5,426C 397.373,432.437 411.706,439.937 425.5,448.5C 423.684,450.817 421.684,452.984 419.5,455C 382.042,484.728 339.709,503.561 292.5,511.5 Z"/></g>
</svg>
