<?xml version="1.0" encoding="UTF-8"?>
<!DOCTYPE svg PUBLIC "-//W3C//DTD SVG 1.1//EN" "http://www.w3.org/Graphics/SVG/1.1/DTD/svg11.dtd">
<svg xmlns="http://www.w3.org/2000/svg" version="1.1" width="512px" height="512px" style="shape-rendering:geometricPrecision; text-rendering:geometricPrecision; image-rendering:optimizeQuality; fill-rule:evenodd; clip-rule:evenodd" xmlns:xlink="http://www.w3.org/1999/xlink">
<g><path style="opacity:0.979" fill="#00f0fe" d="M 237.5,0.5 C 290.005,-5.09795 330.505,13.9021 359,57.5C 377.469,95.0789 379.469,133.746 365,173.5C 351.119,208.715 326.952,234.215 292.5,250C 245.56,264.242 205.393,253.408 172,217.5C 136.182,173.611 127.182,124.611 145,70.5C 159.949,36.5405 185.116,14.3738 220.5,4C 226.315,2.87118 231.981,1.70451 237.5,0.5 Z"/></g>
<g><path style="opacity:0.984" fill="#00f0fe" d="M 465.5,511.5 C 325.5,511.5 185.5,511.5 45.5,511.5C 31.7158,506.882 22.8825,497.548 19,483.5C 17.6192,467.95 19.4525,452.783 24.5,438C 40.2687,393.906 67.602,358.906 106.5,333C 151.645,304.499 201.145,290.665 255,291.5C 310.327,290.703 361.16,305.203 407.5,335C 420.886,344.713 433.386,355.546 445,367.5C 469.38,394.511 485.047,426.178 492,462.5C 495.19,477.591 491.69,490.758 481.5,502C 476.46,505.828 471.126,508.994 465.5,511.5 Z"/></g>
</svg>
