<?xml version="1.0" encoding="UTF-8"?>
<!DOCTYPE svg PUBLIC "-//W3C//DTD SVG 1.1//EN" "http://www.w3.org/Graphics/SVG/1.1/DTD/svg11.dtd">
<svg xmlns="http://www.w3.org/2000/svg" version="1.1" width="512px" height="512px" style="shape-rendering:geometricPrecision; text-rendering:geometricPrecision; image-rendering:optimizeQuality; fill-rule:evenodd; clip-rule:evenodd" xmlns:xlink="http://www.w3.org/1999/xlink">
<g><path style="opacity:0.973" fill="#00f0fe" d="M 371.5,511.5 C 293.833,511.5 216.167,511.5 138.5,511.5C 115.663,504.826 101.496,489.826 96,466.5C 88.4524,347.613 80.9524,228.946 73.5,110.5C 64.8269,110.666 56.1603,110.5 47.5,110C 37.0558,104.587 33.5558,96.0873 37,84.5C 38.5,79 42,75.5 47.5,74C 86.1652,73.5 124.832,73.3333 163.5,73.5C 163.071,59.4406 163.571,45.4406 165,31.5C 170.751,15.417 181.918,5.25031 198.5,1C 236.167,0.333333 273.833,0.333333 311.5,1C 324.683,4.49888 334.85,11.9989 342,23.5C 343.732,27.3634 345.066,31.3634 346,35.5C 346.5,48.1623 346.667,60.8289 346.5,73.5C 386.228,73.0176 425.894,73.5176 465.5,75C 474.138,80.949 476.971,89.1157 474,99.5C 472.088,101.657 470.421,103.991 469,106.5C 467.2,108.317 465.034,109.484 462.5,110C 453.84,110.5 445.173,110.666 436.5,110.5C 435.333,140.846 433.833,171.18 432,201.5C 426.683,289.551 421.017,377.551 415,465.5C 411.638,480.85 403.804,493.35 391.5,503C 384.841,506.146 378.175,508.98 371.5,511.5 Z M 210.5,37.5 C 240.502,37.3334 270.502,37.5 300.5,38C 303.249,39.1227 305.749,40.6227 308,42.5C 309.399,52.7683 309.899,63.1017 309.5,73.5C 273.5,73.5 237.5,73.5 201.5,73.5C 201.101,63.1017 201.601,52.7683 203,42.5C 205.273,40.3718 207.773,38.7051 210.5,37.5 Z M 172.5,147.5 C 183.115,148.282 188.948,153.948 190,164.5C 193.509,249.299 196.676,334.133 199.5,419C 197.627,431.884 190.294,437.551 177.5,436C 170.303,432.763 166.136,427.263 165,419.5C 163.309,355.684 160.975,292.017 158,228.5C 156.91,205.507 156.577,182.507 157,159.5C 160.048,152.603 165.215,148.603 172.5,147.5 Z M 336.5,147.5 C 344.462,148.221 349.962,152.221 353,159.5C 353.667,172.167 353.667,184.833 353,197.5C 350.998,271.567 348.331,345.567 345,419.5C 343.726,429.624 338.06,435.291 328,436.5C 324.786,436.792 321.952,435.959 319.5,434C 317.957,432.122 316.124,430.622 314,429.5C 313.138,427.913 312.471,426.246 312,424.5C 311.333,412.167 311.333,399.833 312,387.5C 315.288,313.256 317.954,238.923 320,164.5C 321.68,154.988 327.18,149.322 336.5,147.5 Z M 249.5,148.5 C 262.312,146.637 269.812,151.97 272,164.5C 272.667,249.5 272.667,334.5 272,419.5C 271.012,429.653 265.512,435.32 255.5,436.5C 245.573,435.073 239.739,429.406 238,419.5C 237.333,334.833 237.333,250.167 238,165.5C 238.863,157.76 242.697,152.093 249.5,148.5 Z"/></g>
</svg>
