<?xml version="1.0" encoding="UTF-8"?>
<!DOCTYPE svg PUBLIC "-//W3C//DTD SVG 1.1//EN" "http://www.w3.org/Graphics/SVG/1.1/DTD/svg11.dtd">
<svg xmlns="http://www.w3.org/2000/svg" version="1.1" width="512px" height="512px" style="shape-rendering:geometricPrecision; text-rendering:geometricPrecision; image-rendering:optimizeQuality; fill-rule:evenodd; clip-rule:evenodd" xmlns:xlink="http://www.w3.org/1999/xlink">
<g><path style="opacity:0.984" fill="#fc58b1" d="M 35.5,3.5 C 92.501,3.33334 149.501,3.50001 206.5,4C 216.404,6.52913 224.571,11.6958 231,19.5C 233.906,24.6398 236.24,29.9731 238,35.5C 238.667,92.5 238.667,149.5 238,206.5C 235.471,216.404 230.304,224.571 222.5,231C 217.36,233.906 212.027,236.24 206.5,238C 149.5,238.667 92.5,238.667 35.5,238C 25.596,235.471 17.4293,230.304 11,222.5C 8.09379,217.36 5.76045,212.027 4,206.5C 3.33333,149.5 3.33333,92.5 4,35.5C 6.52913,25.596 11.6958,17.4293 19.5,11C 24.8543,8.17866 30.1876,5.67866 35.5,3.5 Z"/></g>
<g><path style="opacity:0.984" fill="#fc58b1" d="M 304.5,3.5 C 361.501,3.33334 418.501,3.50001 475.5,4C 485.404,6.52913 493.571,11.6958 500,19.5C 502.906,24.6398 505.24,29.9731 507,35.5C 507.667,92.5 507.667,149.5 507,206.5C 504.471,216.404 499.304,224.571 491.5,231C 486.36,233.906 481.027,236.24 475.5,238C 418.5,238.667 361.5,238.667 304.5,238C 294.596,235.471 286.429,230.304 280,222.5C 277.094,217.36 274.76,212.027 273,206.5C 272.333,149.5 272.333,92.5 273,35.5C 275.529,25.596 280.696,17.4293 288.5,11C 293.854,8.17866 299.188,5.67866 304.5,3.5 Z"/></g>
<g><path style="opacity:0.984" fill="#fc58b1" d="M 35.5,272.5 C 92.501,272.333 149.501,272.5 206.5,273C 216.404,275.529 224.571,280.696 231,288.5C 233.906,293.64 236.24,298.973 238,304.5C 238.667,361.5 238.667,418.5 238,475.5C 235.471,485.404 230.304,493.571 222.5,500C 217.36,502.906 212.027,505.24 206.5,507C 149.5,507.667 92.5,507.667 35.5,507C 25.596,504.471 17.4293,499.304 11,491.5C 8.09379,486.36 5.76045,481.027 4,475.5C 3.33333,418.5 3.33333,361.5 4,304.5C 6.52913,294.596 11.6958,286.429 19.5,280C 24.8543,277.179 30.1876,274.679 35.5,272.5 Z"/></g>
<g><path style="opacity:0.984" fill="#fc58b1" d="M 304.5,272.5 C 361.501,272.333 418.501,272.5 475.5,273C 485.404,275.529 493.571,280.696 500,288.5C 502.906,293.64 505.24,298.973 507,304.5C 507.667,361.5 507.667,418.5 507,475.5C 504.471,485.404 499.304,493.571 491.5,500C 486.36,502.906 481.027,505.24 475.5,507C 418.5,507.667 361.5,507.667 304.5,507C 294.596,504.471 286.429,499.304 280,491.5C 277.094,486.36 274.76,481.027 273,475.5C 272.333,418.5 272.333,361.5 273,304.5C 275.529,294.596 280.696,286.429 288.5,280C 293.854,277.179 299.188,274.679 304.5,272.5 Z"/></g>
</svg>
